<?xml version="1.0" encoding="utf-8" ?>
<svg baseProfile="full" height="1024px" version="1.1" viewBox="0,0,2,2" width="1024px" xmlns="http://www.w3.org/2000/svg" xmlns:ev="http://www.w3.org/2001/xml-events" xmlns:xlink="http://www.w3.org/1999/xlink"><defs /><rect fill="rgb(0,0,0)" height="100%" width="100%" x="0" y="0" /><g transform="scale(0.5,0.5) translate(2,2)" /><g transform="scale(0.5,0.5) translate(2,2)"><line stroke="rgb(100%,48%,12%)" stroke-opacity="1.0" stroke-width="0.01" x1="0.19999999999999996" x2="-0.22194497949180925" y1="0.0" y2="0.48495862764036346" /></g><g transform="scale(0.5,0.5) translate(2,2)"><line stroke="rgb(100%,48%,12%)" stroke-opacity="0.9703720204945421" stroke-width="0.01" x1="0.3782116141076978" x2="-0.3217475613951447" y1="0.5890296893655275" y2="0.04586400261945684" /></g><g transform="scale(0.5,0.5) translate(2,2)"><line stroke="rgb(100%,48%,12%)" stroke-opacity="0.9411895745154824" stroke-width="0.01" x1="-0.6391182070666427" x2="0.36984336967273346" y1="-0.739984662078863" y2="-0.107626710417364" /></g><g transform="scale(0.5,0.5) translate(2,2)"><line stroke="rgb(100%,48%,12%)" stroke-opacity="0.9124526620628202" stroke-width="0.01" x1="0.2517501895986133" x2="0.35103573717860115" y1="-0.8510452937635353" y2="0.3059093850284361" /></g><g transform="scale(0.5,0.5) translate(2,2)"><line stroke="rgb(100%,48%,12%)" stroke-opacity="0.8841612831365561" stroke-width="0.01" x1="-0.11352595230499227" x2="-0.212702906136253" y1="0.7719437183530583" y2="-0.13790823222545343" /></g><g transform="scale(0.5,0.5) translate(2,2)"><line stroke="rgb(100%,48%,12%)" stroke-opacity="0.8563154377366897" stroke-width="0.01" x1="-1.0008196470389499" x2="0.0027608748777019935" y1="0.452686398632742" y2="-0.623822015570888" /></g><g transform="scale(0.5,0.5) translate(2,2)"><line stroke="rgb(100%,48%,12%)" stroke-opacity="0.8289151258632211" stroke-width="0.01" x1="0.5102480452802228" x2="0.14670334193089196" y1="-0.3244462856715935" y2="1.0628080015557584" /></g><g transform="scale(0.5,0.5) translate(2,2)"><line stroke="rgb(100%,48%,12%)" stroke-opacity="0.8019603475161506" stroke-width="0.01" x1="0.2430787618669812" x2="-0.6091228133327492" y1="0.11255060371244881" y2="0.5214051085556648" /></g><g transform="scale(0.5,0.5) translate(2,2)"><line stroke="rgb(100%,48%,12%)" stroke-opacity="0.7754511026954778" stroke-width="0.01" x1="-0.4295966137003179" x2="0.5710332205988636" y1="-0.1291505931426033" y2="-0.6494439119874389" /></g><g transform="scale(0.5,0.5) translate(2,2)"><line stroke="rgb(100%,48%,12%)" stroke-opacity="0.749387391401203" stroke-width="0.01" x1="-0.11043817616941473" x2="0.990714131357178" y1="-0.3858616715760247" y2="0.1501818307006584" /></g><g transform="scale(0.5,0.5) translate(2,2)"><line stroke="rgb(100%,48%,12%)" stroke-opacity="0.7237692136333259" stroke-width="0.01" x1="0.12644745666458818" x2="-0.6797839221873987" y1="0.28288331154656726" y2="-0.006017213461870047" /></g><g transform="scale(0.5,0.5) translate(2,2)"><line stroke="rgb(100%,48%,12%)" stroke-opacity="0.6985965693918467" stroke-width="0.01" x1="-0.3020860258793352" x2="-0.1138361860415574" y1="0.46143595975027746" y2="-0.18078928986340206" /></g><g transform="scale(0.5,0.5) translate(2,2)"><line stroke="rgb(100%,48%,12%)" stroke-opacity="0.6738694586767655" stroke-width="0.01" x1="0.4975962225851113" x2="0.33341391102918344" y1="-1.0623165323957464" y2="0.39301283264746634" /></g><g transform="scale(0.5,0.5) translate(2,2)"><line stroke="rgb(100%,48%,12%)" stroke-opacity="0.649587881488082" stroke-width="0.01" x1="0.7141268319097193" x2="-0.09942905584545528" y1="-0.09535479002257712" y2="0.32550127799424666" /></g><g transform="scale(0.5,0.5) translate(2,2)"><line stroke="rgb(100%,48%,12%)" stroke-opacity="0.6257518378257965" stroke-width="0.01" x1="-0.9181811667121756" x2="0.05695473012930462" y1="0.2584033626661633" y2="-0.3648139096938045" /></g><g transform="scale(0.5,0.5) translate(2,2)"><line stroke="rgb(100%,48%,12%)" stroke-opacity="0.6023613276899087" stroke-width="0.01" x1="-0.6811235930621261" x2="0.4417220017110222" y1="-0.6042539213271929" y2="-0.1951066504529897" /></g><g transform="scale(0.5,0.5) translate(2,2)"><line stroke="rgb(100%,48%,12%)" stroke-opacity="0.5794163510804188" stroke-width="0.01" x1="0.6331566542485183" x2="-0.20307835175811595" y1="0.4185203736639167" y2="0.12661914167130608" /></g><g transform="scale(0.5,0.5) translate(2,2)"><line stroke="rgb(100%,48%,12%)" stroke-opacity="0.5569169079973267" stroke-width="0.01" x1="-0.014927556536971889" x2="-0.5813034351025987" y1="1.1242392863980708" y2="-0.2754301245790978" /></g><g transform="scale(0.5,0.5) translate(2,2)"><line stroke="rgb(100%,48%,12%)" stroke-opacity="0.5348629984406327" stroke-width="0.01" x1="-0.07495571197163763" x2="1.000608581243262" y1="-0.5809420648521427" y2="0.31049850963408543" /></g><g transform="scale(0.5,0.5) translate(2,2)"><line stroke="rgb(100%,48%,12%)" stroke-opacity="0.5132546224103365" stroke-width="0.01" x1="0.21618380646741947" x2="0.21962325438453772" y1="-0.1817611303613595" y2="0.7938402020376124" /></g><g transform="scale(0.5,0.5) translate(2,2)"><line stroke="rgb(100%,48%,12%)" stroke-opacity="0.492091779906438" stroke-width="0.01" x1="-0.2879735779259241" x2="-0.3369394113171054" y1="0.32172838097041845" y2="-0.7720589212709706" /></g><g transform="scale(0.5,0.5) translate(2,2)"><line stroke="rgb(100%,48%,12%)" stroke-opacity="0.47137447092893736" stroke-width="0.01" x1="-0.41245642617115513" x2="0.5698893500276251" y1="-0.06626388777827408" y2="-0.8539149866297961" /></g><g transform="scale(0.5,0.5) translate(2,2)"><line stroke="rgb(100%,48%,12%)" stroke-opacity="0.4511026954778346" stroke-width="0.01" x1="0.29487342475873235" x2="-0.28519113495926524" y1="0.005220645310629533" y2="0.595083681161867" /></g><g transform="scale(0.5,0.5) translate(2,2)"><line stroke="rgb(100%,48%,12%)" stroke-opacity="0.4312764535531299" stroke-width="0.01" x1="0.29941438964229655" x2="-0.2257291969317623" y1="0.48498400003442493" y2="0.02810950795046808" /></g><g transform="scale(0.5,0.5) translate(2,2)"><line stroke="rgb(100%,48%,12%)" stroke-opacity="0.411895745154823" stroke-width="0.01" x1="-0.7339407190609234" x2="0.4802467360569727" y1="-0.880822251777371" y2="-0.1305793814437555" /></g><g transform="scale(0.5,0.5) translate(2,2)"><line stroke="rgb(100%,48%,12%)" stroke-opacity="0.3929605702829138" stroke-width="0.01" x1="0.22280189945362955" x2="0.2641376894792711" y1="-0.7069300522137334" y2="0.23853908889675823" /></g><g transform="scale(0.5,0.5) translate(2,2)"><line stroke="rgb(100%,48%,12%)" stroke-opacity="0.3744709289374025" stroke-width="0.01" x1="-0.1516210941173929" x2="-0.2931573634580408" y1="0.9178037816696483" y2="-0.19752946100374774" /></g><g transform="scale(0.5,0.5) translate(2,2)"><line stroke="rgb(100%,48%,12%)" stroke-opacity="0.3564268211182891" stroke-width="0.01" x1="-0.8575476799160999" x2="0.011072120317433723" y1="0.3697387112736716" y2="-0.500272585658475" /></g><g transform="scale(0.5,0.5) translate(2,2)"><line stroke="rgb(100%,48%,12%)" stroke-opacity="0.33882824682557366" stroke-width="0.01" x1="0.6296714154280706" x2="0.02685478933706255" y1="-0.3849015684576109" y2="0.22372340577085523" /></g><g transform="scale(0.5,0.5) translate(2,2)"><line stroke="rgb(100%,48%,12%)" stroke-opacity="0.32167520605925604" stroke-width="0.01" x1="1.035380151297746" x2="-0.5111833795199187" y1="0.5018479587699007" y2="0.42212194874094033" /></g><g transform="scale(0.5,0.5) translate(2,2)"><line stroke="rgb(100%,48%,12%)" stroke-opacity="0.3049676988193362" stroke-width="0.01" x1="-0.5401189985332085" x2="0.6888684032348791" y1="-0.17285989460186763" y2="-0.7560398087617539" /></g><g transform="scale(0.5,0.5) translate(2,2)"><line stroke="rgb(100%,48%,12%)" stroke-opacity="0.2887057251058142" stroke-width="0.01" x1="-0.07670996444791245" x2="0.8338836948101023" y1="-0.2871382799277028" y2="0.14155155045981033" /></g><g transform="scale(0.5,0.5) translate(2,2)"><line stroke="rgb(100%,48%,12%)" stroke-opacity="0.2728892849186901" stroke-width="0.01" x1="0.16270116913969807" x2="-0.8199844494358848" y1="0.38199961728279047" y2="-0.02177921154531769" /></g><g transform="scale(0.5,0.5) translate(2,2)"><line stroke="rgb(100%,48%,12%)" stroke-opacity="0.2575183782579639" stroke-width="0.01" x1="-0.2443071214321841" x2="-0.5444551949125763" y1="0.3591408151248729" y2="-0.8996127180341074" /></g><g transform="scale(0.5,0.5) translate(2,2)"><line stroke="rgb(100%,48%,12%)" stroke-opacity="0.24259300512363552" stroke-width="0.01" x1="0.12332033777908462" x2="0.40547833122592114" y1="-0.2515835517642212" y2="0.49547826843113096" /></g><g transform="scale(0.5,0.5) translate(2,2)"><line stroke="rgb(100%,48%,12%)" stroke-opacity="0.2281131655157051" stroke-width="0.01" x1="0.5847635515449939" x2="-0.07462613035216914" y1="-0.06756857801467037" y2="0.22967090138320306" /></g><g transform="scale(0.5,0.5) translate(2,2)"><line stroke="rgb(100%,48%,12%)" stroke-opacity="0.21407885943417243" stroke-width="0.01" x1="-1.0836343426871065" x2="0.08246144989529566" y1="0.28436448237898376" y2="-0.4730831966709371" /></g><g transform="scale(0.5,0.5) translate(2,2)"><line stroke="rgb(100%,48%,12%)" stroke-opacity="0.2004900868790376" stroke-width="0.01" x1="-0.5611526846529337" x2="0.34259383295844326" y1="-0.515860033796027" y2="-0.14412955120255178" /></g><g transform="scale(0.5,0.5) translate(2,2)"><line stroke="rgb(100%,48%,12%)" stroke-opacity="0.18734684785030076" stroke-width="0.01" x1="0.7476313708237927" x2="-0.2899116756404818" y1="0.5134341163999511" y2="0.1737092773293338" /></g><g transform="scale(0.5,0.5) translate(2,2)"><line stroke="rgb(100%,48%,12%)" stroke-opacity="0.17464914234796167" stroke-width="0.01" x1="-0.02965907734478004" x2="-0.46423545681957507" y1="0.9570561847443345" y2="-0.2301110860516468" /></g><g transform="scale(0.5,0.5) translate(2,2)"><line stroke="rgb(100%,48%,12%)" stroke-opacity="0.16239697037202053" stroke-width="0.01" x1="-0.07918002795100494" x2="0.20088423302133693" y1="-0.7129096502543725" y2="0.06625692470147894" /></g><g transform="scale(0.5,0.5) translate(2,2)"><line stroke="rgb(100%,48%,12%)" stroke-opacity="0.15059033192247717" stroke-width="0.01" x1="0.9143186956076162" x2="0.1704119002051147" y1="-0.7415073564284782" y2="0.6612997911815365" /></g><g transform="scale(0.5,0.5) translate(2,2)"><line stroke="rgb(100%,48%,12%)" stroke-opacity="0.13922922699933168" stroke-width="0.01" x1="-0.37313238445591185" x2="-0.3830359950815593" y1="0.4023052941025975" y2="-0.9218641092251562" /></g><g transform="scale(0.5,0.5) translate(2,2)"><line stroke="rgb(100%,48%,12%)" stroke-opacity="0.12831365560258412" stroke-width="0.01" x1="-0.3073006000677496" x2="0.49469529912907007" y1="-0.054966911324655" y2="-0.7135571426139343" /></g><g transform="scale(0.5,0.5) translate(2,2)"><line stroke="rgb(100%,48%,12%)" stroke-opacity="0.11784361773223434" stroke-width="0.01" x1="0.39859904437347443" x2="-0.3577712549664842" y1="0.014118577985105013" y2="0.7138253553853893" /></g><g transform="scale(0.5,0.5) translate(2,2)"><line stroke="rgb(100%,48%,12%)" stroke-opacity="0.10781911338828243" stroke-width="0.01" x1="0.23019193342514" x2="-1.070735030292518" y1="0.38806340145393275" y2="0.11412736846755862" /></g><g transform="scale(0.5,0.5) translate(2,2)"><line stroke="rgb(100%,48%,12%)" stroke-opacity="0.09824014257072845" stroke-width="0.01" x1="-0.1664109358192821" x2="0.6018966862577279" y1="-0.20706014478511103" y2="-0.15226667813645403" /></g><g transform="scale(0.5,0.5) translate(2,2)"><line stroke="rgb(100%,48%,12%)" stroke-opacity="0.08910670527957228" stroke-width="0.01" x1="0.1928697145649366" x2="0.18670544082842427" y1="-0.5761763351522577" y2="0.17471007780285486" /></g><g transform="scale(0.5,0.5) translate(2,2)"><line stroke="rgb(100%,48%,12%)" stroke-opacity="0.08041880151481401" stroke-width="0.01" x1="-0.19747705753574157" x2="-0.37931813940273984" y1="1.0765146047119372" y2="-0.2654671858172386" /></g><g transform="scale(0.5,0.5) translate(2,2)"><line stroke="rgb(100%,48%,12%)" stroke-opacity="0.07217643127645355" stroke-width="0.01" x1="-0.724899468768874" x2="0.015437065805255504" y1="0.29744169170462503" y2="-0.3873551137019424" /></g><g transform="scale(0.5,0.5) translate(2,2)"><line stroke="rgb(100%,48%,12%)" stroke-opacity="0.06437959456449095" stroke-width="0.01" x1="0.7622725962469401" x2="0.03277696273771859" y1="-0.4476170756590027" y2="0.3209841491891257" /></g><g transform="scale(0.5,0.5) translate(2,2)"><line stroke="rgb(100%,48%,12%)" stroke-opacity="0.057028291378926274" stroke-width="0.01" x1="0.8754973310000418" x2="-0.4193699522231315" y1="0.4436605489741595" y2="0.33399692594757396" /></g><g transform="scale(0.5,0.5) translate(2,2)"><line stroke="rgb(100%,48%,12%)" stroke-opacity="0.0501225217197594" stroke-width="0.01" x1="-0.6598449232195606" x2="0.8209199027080409" y1="-0.22412934803035747" y2="-0.8695374288579996" /></g><g transform="scale(0.5,0.5) translate(2,2)"><line stroke="rgb(100%,48%,12%)" stroke-opacity="0.043662285586990444" stroke-width="0.01" x1="-0.048695489931185484" x2="0.6910271843683048" y1="-0.19613578023804487" y2="0.12992659900525458" /></g><g transform="scale(0.5,0.5) translate(2,2)"><line stroke="rgb(100%,48%,12%)" stroke-opacity="0.03764758298061929" stroke-width="0.01" x1="0.1992273912745696" x2="-0.9731156197662199" y1="0.49172546884925944" y2="-0.043095439585512714" /></g><g transform="scale(0.5,0.5) translate(2,2)"><line stroke="rgb(100%,48%,12%)" stroke-opacity="0.03207841390064601" stroke-width="0.01" x1="-0.18888258838238883" x2="-0.4477807605576293" y1="0.2673620017627338" y2="-0.7703390336963741" /></g><g transform="scale(0.5,0.5) translate(2,2)"><line stroke="rgb(100%,48%,12%)" stroke-opacity="0.026954778347070628" stroke-width="0.01" x1="0.17450527820376147" x2="0.4813369064464895" y1="-0.3406128376382996" y2="0.6098909773932879" /></g><g transform="scale(0.5,0.5) translate(2,2)"><line stroke="rgb(100%,48%,12%)" stroke-opacity="0.02227667631989307" stroke-width="0.01" x1="0.4660540588287432" x2="-0.35917462892888014" y1="-0.045507424883035996" y2="1.0422534246485928" /></g><g transform="scale(0.5,0.5) translate(2,2)"><line stroke="rgb(100%,48%,12%)" stroke-opacity="0.018044107819113402" stroke-width="0.01" x1="-0.24416150071166004" x2="0.11380557610592235" y1="0.05947310149430057" y2="-0.5908738682431018" /></g><g transform="scale(0.5,0.5) translate(2,2)"><line stroke="rgb(100%,48%,12%)" stroke-opacity="0.014257072844731569" stroke-width="0.01" x1="-0.45386728931225995" x2="0.2507831488309705" y1="-0.43230568537345004" y2="-0.10031746588924167" /></g><g transform="scale(0.5,0.5) translate(2,2)"><line stroke="rgb(100%,48%,12%)" stroke-opacity="0.010915571396747599" stroke-width="0.01" x1="0.8703419354658629" x2="-0.38656568678557696" y1="0.6206608605623096" y2="0.22241891141826858" /></g><g transform="scale(0.5,0.5) translate(2,2)"><line stroke="rgb(100%,48%,12%)" stroke-opacity="0.008019603475161513" stroke-width="0.01" x1="-0.03918174434993008" x2="-0.35862061887576036" y1="0.8042009918946476" y2="-0.18573947039280542" /></g><g transform="scale(0.5,0.5) translate(2,2)"><line stroke="rgb(100%,48%,12%)" stroke-opacity="0.005569169079973267" stroke-width="0.01" x1="-0.07990946276805559" x2="0.29031552752172507" y1="-0.8575993440613798" y2="0.1014863032750128" /></g><g transform="scale(0.5,0.5) translate(2,2)"><line stroke="rgb(100%,48%,12%)" stroke-opacity="0.0035642682111828856" stroke-width="0.01" x1="0.792282692688497" x2="0.12880814351680056" y1="-0.6196130530621446" y2="0.5391769558229941" /></g><g transform="scale(0.5,0.5) translate(2,2)"><line stroke="rgb(100%,48%,12%)" stroke-opacity="0.002004900868790378" stroke-width="0.01" x1="-0.4688990495849782" x2="-0.42935070347247434" y1="0.4879433335768411" y2="-1.0872612852643335" /></g><g transform="scale(0.5,0.5) translate(2,2)"><line stroke="rgb(100%,48%,12%)" stroke-opacity="0.0008910670527957214" stroke-width="0.01" x1="-0.21168538545480714" x2="0.42275870649705377" y1="-0.04174422488043443" y2="-0.5873112285985103" /></g></svg>