<?xml version="1.0" encoding="utf-8" ?>
<svg baseProfile="full" height="1024px" version="1.1" viewBox="0,0,2,2" width="1024px" xmlns="http://www.w3.org/2000/svg" xmlns:ev="http://www.w3.org/2001/xml-events" xmlns:xlink="http://www.w3.org/1999/xlink"><defs /><rect fill="rgb(0,0,0)" height="100%" width="100%" x="0" y="0" /><g transform="scale(0.5,0.5) translate(2,2)" /><g transform="scale(0.5,0.5) translate(2,2)"><line stroke="rgb(100%,48%,12%)" stroke-opacity="1.0" stroke-width="0.01" x1="0.19999999999999996" x2="-0.22194497949180925" y1="0.0" y2="0.48495862764036346" /></g><g transform="scale(0.5,0.5) translate(2,2)"><line stroke="rgb(100%,48%,12%)" stroke-opacity="0.7901234567901234" stroke-width="0.01" x1="0.3782116141076978" x2="-0.3217475613951447" y1="0.5890296893655275" y2="0.04586400261945684" /></g><g transform="scale(0.5,0.5) translate(2,2)"><line stroke="rgb(100%,48%,12%)" stroke-opacity="0.6049382716049383" stroke-width="0.01" x1="-0.6391182070666427" x2="0.36984336967273346" y1="-0.739984662078863" y2="-0.107626710417364" /></g><g transform="scale(0.5,0.5) translate(2,2)"><line stroke="rgb(100%,48%,12%)" stroke-opacity="0.44444444444444453" stroke-width="0.01" x1="0.2517501895986133" x2="0.35103573717860115" y1="-0.8510452937635353" y2="0.3059093850284361" /></g><g transform="scale(0.5,0.5) translate(2,2)"><line stroke="rgb(100%,48%,12%)" stroke-opacity="0.308641975308642" stroke-width="0.01" x1="-0.11352595230499227" x2="-0.212702906136253" y1="0.7719437183530583" y2="-0.13790823222545343" /></g><g transform="scale(0.5,0.5) translate(2,2)"><line stroke="rgb(100%,48%,12%)" stroke-opacity="0.19753086419753085" stroke-width="0.01" x1="-1.0008196470389499" x2="0.0027608748777019935" y1="0.452686398632742" y2="-0.623822015570888" /></g><g transform="scale(0.5,0.5) translate(2,2)"><line stroke="rgb(100%,48%,12%)" stroke-opacity="0.11111111111111113" stroke-width="0.01" x1="0.5102480452802228" x2="0.14670334193089196" y1="-0.3244462856715935" y2="1.0628080015557584" /></g><g transform="scale(0.5,0.5) translate(2,2)"><line stroke="rgb(100%,48%,12%)" stroke-opacity="0.04938271604938271" stroke-width="0.01" x1="0.2430787618669812" x2="-0.6091228133327492" y1="0.11255060371244881" y2="0.5214051085556648" /></g></svg>